<svg xmlns="http://www.w3.org/2000/svg" viewBox="0 0 32 32"><rect width="32" height="32" rx="6" fill="#F7DF1E"/><path d="M19.5 24.6c.6 1.1 1.4 2 2.9 2 1.2 0 2-.6 2-1.5 0-1-0.8-1.3-2.2-1.9l-.8-.3c-2.3-.9-3.8-2-3.8-4.3 0-2.1 1.6-3.7 4.1-3.7 1.8 0 3.1.6 4 2.2l-2.2 1.4c-.5-.9-1-1.2-1.8-1.2-.8 0-1.3.5-1.3 1.2 0 .8.5 1.1 1.7 1.6l.8.3c2.7 1.1 4.2 2.1 4.2 4.5 0 2.6-2 4-4.6 4-2.6 0-4.2-1.2-5-2.8l2.3-1.3zm-9.2.2c.4.7.8 1.3 1.7 1.3.8 0 1.3-.3 1.3-1.6v-7.2h2.7v7.3c0 2.8-1.6 4-3.9 4-2.1 0-3.3-1.1-3.9-2.4l2.1-1.4z" fill="#222"/></svg>