<svg viewBox="0 0 48 48" fill="none" xmlns="http://www.w3.org/2000/svg"><g><circle cx="24" cy="24" r="20" fill="#25D366"/><path d="M24 12c-6.627 0-12 5.373-12 12 0 2.12.555 4.11 1.52 5.83L12 36l6.17-1.52A11.96 11.96 0 0024 36c6.627 0 12-5.373 12-12S30.627 12 24 12zm6.29 16.29c-.26.73-1.52 1.44-2.09 1.53-.54.08-1.23.12-1.98-.12-.46-.15-1.05-.34-1.81-.67-3.19-1.39-5.28-4.8-5.44-5.03-.16-.23-1.3-1.73-1.3-3.3 0-1.57.83-2.34 1.13-2.66.3-.32.65-.4.87-.4.22 0 .44.01.63.01.2 0 .47-.08.74.57.27.65.92 2.23 1 2.39.08.16.13.35.03.57-.1.22-.15.35-.3.54-.15.19-.31.42-.44.56-.15.15-.3.31-.13.61.17.3.76 1.25 1.63 2.03 1.12.99 2.06 1.3 2.36 1.45.3.15.47.13.65-.08.18-.21.75-.87.95-1.17.2-.3.4-.25.67-.15.27.1 1.7.8 1.99.94.29.14.48.21.55.33.07.12.07.68-.19 1.41z" fill="#fff"/></g></svg>